<svg xmlns="http://www.w3.org/2000/svg" viewBox="0 0 64 80" x="0px" y="0px"><g data-name="Layer 9"><path d="M18.44,30.52A48.46,48.46,0,0,0,31.3,52.71a1,1,0,0,0,1.4,0A48.46,48.46,0,0,0,45.56,30.52l0-.19A1,1,0,0,0,45,29.14L32.35,24.42a1.05,1.05,0,0,0-.7,0L19,29.14a1,1,0,0,0-.62,1.19ZM27,35.88a1,1,0,0,1,1.42,0l1.89,1.89,5.37-5.37a1,1,0,0,1,1.42,1.41L31,39.89a1,1,0,0,1-1.42,0L27,37.29A1,1,0,0,1,27,35.88Z"/><path d="M55.41,5.39H8.59A5.6,5.6,0,0,0,3,11V53a5.6,5.6,0,0,0,5.59,5.59H55.41A5.6,5.6,0,0,0,61,53V11A5.6,5.6,0,0,0,55.41,5.39ZM23.73,11.57h1.38a1,1,0,0,1,0,2H23.73a1,1,0,1,1,0-2Zm-6.62,0h1.37a1,1,0,0,1,0,2H17.11a1,1,0,0,1,0-2Zm-6.63,0h1.38a1,1,0,0,1,0,2H10.48a1,1,0,0,1,0-2ZM59,53a3.59,3.59,0,0,1-3.59,3.59H8.59A3.59,3.59,0,0,1,5,53V19.68H59Z"/></g><text x="0" y="79" fill="#000000" font-size="5px" font-weight="bold" font-family="'Helvetica Neue', Helvetica, Arial-Unicode, Arial, Sans-serif">Created by Colourcreatype</text><text x="0" y="84" fill="#000000" font-size="5px" font-weight="bold" font-family="'Helvetica Neue', Helvetica, Arial-Unicode, Arial, Sans-serif">from the Noun Project</text></svg>